<?xml version="1.0" encoding="utf-8"?>
<!-- Generator: Adobe Illustrator 21.1.0, SVG Export Plug-In . SVG Version: 6.00 Build 0)  -->
<svg version="1.1" id="Layer_2" xmlns="http://www.w3.org/2000/svg" xmlns:xlink="http://www.w3.org/1999/xlink" x="0px" y="0px"
	 viewBox="0 0 288 288" style="enable-background:new 0 0 288 288;" xml:space="preserve">
<style type="text/css">
	.st0{fill:#FFFFFF;}
	.st1{fill-rule:evenodd;clip-rule:evenodd;fill:#65C8D6;}
</style>
<circle class="st0" cx="144.1" cy="143.2" r="136.5"/>
<path id="XMLID_1_" class="st1" d="M118.9,191.2c0-15.1-0.1-30.2,0.1-45.2c0-2.5-0.7-3.3-3.2-3.2c-4.7,0.2-9.4,0-14.1,0.1
	c-1.9,0-2.6-0.5-2.6-2.5c0.1-9.4,0.1-18.8,0-28.2c0-1.8,0.5-2.4,2.4-2.4c4.8,0.1,9.6-0.1,14.4,0.1c2.8,0.1,3.4-0.9,3.3-3.4
	c-0.2-7.2-0.2-14.3,0-21.5c0.2-8.7,2.5-16.9,7.7-24c6.6-9,16-13.1,26.8-13.6c11.1-0.5,22.2-0.2,33.4-0.3c1.6,0,2,0.5,2,2
	c0,9.5-0.1,19,0,28.6c0,1.7-0.5,2.2-2.2,2.2c-5.3-0.1-10.7,0-16,0c-7.1,0-11.4,3.7-11.8,10.7c-0.4,5.6-0.1,11.3-0.2,17
	c0,2,1.2,1.9,2.5,1.9c8.1,0,16.3,0.1,24.4-0.1c2.4,0,3.2,0.5,2.9,3c-1,9.5-1.9,18.9-2.7,28.4c-0.2,2.1-1.2,2.5-3.1,2.5
	c-6.4-0.1-12.8-0.1-19.2,0c-4.6,0-4.2-0.7-4.2,4c0,29.5-0.1,59,0.1,88.6c0,3.1-0.8,3.9-3.9,3.8c-11-0.2-22-0.2-33,0
	c-3.1,0.1-3.6-1-3.6-3.8C119,220.9,118.9,206,118.9,191.2z"/>
</svg>
