<?xml version="1.0" encoding="utf-8"?>
<!-- Generator: Adobe Illustrator 21.1.0, SVG Export Plug-In . SVG Version: 6.00 Build 0)  -->
<svg version="1.1" id="Layer_2" xmlns="http://www.w3.org/2000/svg" xmlns:xlink="http://www.w3.org/1999/xlink" x="0px" y="0px"
	 viewBox="0 0 288 288" style="enable-background:new 0 0 288 288;" xml:space="preserve">
<style type="text/css">
	.st0{fill:#FFFFFF;}
	.st1{fill:#65C8D6;}
</style>
<circle class="st0" cx="143.9" cy="142.5" r="136.5"/>
<g>
	<path class="st1" d="M65.3,115.2H99v108.5H65.3V115.2z M82.1,61.3c10.8,0,19.5,8.8,19.5,19.5c0,10.8-8.8,19.5-19.5,19.5
		c-10.8,0-19.6-8.8-19.6-19.5C62.6,70.1,71.3,61.3,82.1,61.3"/>
	<path class="st1" d="M120.2,115.2h32.3v14.8h0.5c4.5-8.5,15.5-17.5,31.9-17.5c34.1,0,40.4,22.5,40.4,51.7v59.5h-33.7V171
		c0-12.6-0.2-28.8-17.5-28.8c-17.5,0-20.2,13.7-20.2,27.9v53.6h-33.7V115.2z"/>
</g>
</svg>
