<?xml version="1.0" encoding="utf-8"?>
<!-- Generator: Adobe Illustrator 25.4.8, SVG Export Plug-In . SVG Version: 6.00 Build 0)  -->
<svg version="1.1" id="Layer_1" xmlns="http://www.w3.org/2000/svg" xmlns:xlink="http://www.w3.org/1999/xlink" x="0px" y="0px"
	 viewBox="0 0 100.2 60.9" style="enable-background:new 0 0 100.2 60.9;" xml:space="preserve">
<style type="text/css">
	.st0{fill:#FFFFFF;stroke:#61636A;stroke-width:0.3303;stroke-linecap:round;stroke-linejoin:round;stroke-miterlimit:10;}
	.st1{fill:#65C9D7;}
	.st2{fill:#61636A;}
	.st3{fill:#61636A;stroke:#FFFFFF;stroke-width:0.3303;}
</style>
<g>
	<g>
		<path class="st0" d="M79.8,57.1c6.6,1,9.8,1.6,16.3,3.2c-1.7-2.5-2.6-3.7-4.5-6.1c2.7-1.6,4.1-2.3,6.9-3.8
			c-6.8-1.6-10.3-2.3-17.2-3.3C80.7,51.1,80.4,53.1,79.8,57.1z"/>
		<path class="st0" d="M88.3,55.8c-3.5,0.5-5.2,0.7-8.6,1.3"/>
	</g>
	<g>
		<path class="st0" d="M21.7,57.1c-6.6,1-9.8,1.6-16.3,3.2c1.7-2.5,2.6-3.7,4.5-6.1c-2.7-1.6-4.1-2.3-6.9-3.8
			c6.8-1.6,10.3-2.3,17.2-3.3C20.8,51.1,21.1,53.1,21.7,57.1z"/>
		<path class="st0" d="M13.1,55.8c3.5,0.5,5.2,0.7,8.6,1.3"/>
	</g>
	<path class="st0" d="M88.3,55.9c-25.4-4.3-49.8-4.3-75.2,0c-0.8-4-1.2-6-1.9-10c26.6-4.6,52.4-4.6,79,0
		C89.5,49.9,89.1,51.9,88.3,55.9z"/>
	<g>
		<path class="st1" d="M19.1,51.7c-0.3-1.6-0.4-2.4-0.6-3.9c-0.2-1.1,0.6-1.9,1.8-2.1c1.1-0.2,2.1,0.3,2.2,1.3
			c0,0.3,0.1,0.5,0.1,0.8c-0.4,0.1-0.7,0.1-1.1,0.2c0-0.3-0.1-0.4-0.1-0.7c-0.1-0.5-0.5-0.7-1-0.6c-0.6,0.1-0.8,0.5-0.7,1
			c0.2,1.5,0.4,2.3,0.6,3.9c0.1,0.5,0.4,0.8,1,0.7c0.6-0.1,0.7-0.4,0.7-0.9c-0.1-0.5-0.1-0.8-0.2-1.3c-0.4,0.1-0.5,0.1-0.9,0.1
			c-0.1-0.4-0.1-0.5-0.1-0.9c0.8-0.1,1.2-0.2,2.1-0.3c0.1,0.9,0.2,1.4,0.3,2.3c0.1,1-0.5,1.8-1.7,2C20.2,53.4,19.2,52.9,19.1,51.7z"
			/>
		<path class="st1" d="M23,45.4c0.8-0.1,1.2-0.2,2-0.3c1.3-0.2,2.1,0.5,2.2,1.9c0.1,1-0.2,1.7-0.8,2c0.6,1.3,0.9,1.9,1.4,3.2
			c-0.5,0.1-0.7,0.1-1.2,0.1c-0.5-1.2-0.8-1.8-1.3-2.9c-0.3,0-0.4,0-0.6,0.1c0.2,1.2,0.2,1.8,0.4,3.1c-0.5,0.1-0.7,0.1-1.2,0.2
			C23.6,49.8,23.4,48.3,23,45.4z M25.3,48.5c0.5-0.1,0.8-0.5,0.7-1.3c-0.1-0.7-0.4-1.2-1-1.1c-0.3,0-0.4,0.1-0.7,0.1
			c0.1,1,0.2,1.5,0.3,2.4C24.9,48.6,25.1,48.6,25.3,48.5z"/>
		<path class="st1" d="M29,44.6c0.7-0.1,1-0.1,1.7-0.2c0.9,2.9,1.3,4.3,2.2,7.2c-0.5,0-0.7,0.1-1.2,0.1c-0.2-0.8-0.3-1.1-0.6-1.9
			c-0.7,0.1-1,0.1-1.6,0.2c-0.1,0.8-0.1,1.2-0.2,2c-0.4,0-0.7,0.1-1.1,0.1C28.5,49.2,28.7,47.6,29,44.6z M30.9,49
			c-0.4-1.3-0.5-1.9-0.9-3.1c0,0,0,0,0,0c-0.1,1.3-0.2,2-0.3,3.3C30.1,49.1,30.4,49.1,30.9,49z"/>
		<path class="st1" d="M32.8,44.3c0.8-0.1,1.2-0.1,2.1-0.2c1.3-0.1,1.9,0.7,2,2.1c0.1,1.4-0.4,2.4-1.7,2.5c-0.3,0-0.4,0-0.7,0.1
			c0.1,1.1,0.1,1.7,0.2,2.8c-0.5,0-0.7,0.1-1.2,0.1C33.2,48.7,33.1,47.2,32.8,44.3z M34.9,47.7c0.6,0,0.8-0.5,0.8-1.4
			c-0.1-0.8-0.3-1.2-0.9-1.2c-0.3,0-0.4,0-0.6,0.1c0.1,1,0.1,1.6,0.2,2.6C34.6,47.8,34.7,47.7,34.9,47.7z"/>
		<path class="st1" d="M37.4,43.9c0.5,0,0.7,0,1.2-0.1c0.1,1.2,0.1,1.9,0.2,3.1c0.7,0,1-0.1,1.6-0.1c-0.1-1.2-0.1-1.9-0.2-3.1
			c0.5,0,0.7,0,1.2-0.1c0.1,3,0.2,4.4,0.3,7.4c-0.5,0-0.7,0-1.2,0.1c-0.1-1.3-0.1-1.9-0.2-3.2c-0.7,0-1,0.1-1.6,0.1
			c0.1,1.3,0.1,1.9,0.2,3.2c-0.5,0-0.7,0-1.2,0.1C37.7,48.4,37.6,46.9,37.4,43.9z"/>
		<path class="st1" d="M42.4,43.7c0.5,0,0.7,0,1.2,0c0.1,3,0.2,4.4,0.3,7.4c-0.5,0-0.7,0-1.2,0C42.6,48.1,42.5,46.6,42.4,43.7z"/>
		<path class="st1" d="M44.6,49.3c0-1.6-0.1-2.4-0.1-4c0-1.1,0.8-1.8,2.1-1.8c1.1,0,2,0.6,2,1.6c0,0.3,0,0.5,0,0.8
			c-0.4,0-0.7,0-1.1,0c0-0.3,0-0.4,0-0.7c0-0.5-0.3-0.8-0.8-0.8c-0.6,0-0.8,0.4-0.8,0.9c0,1.6,0.1,2.3,0.1,3.9
			c0,0.5,0.3,0.8,0.9,0.8c0.5,0,0.8-0.3,0.8-0.8c0-0.3,0-0.4,0-0.7c0.4,0,0.7,0,1.1,0c0,0.3,0,0.5,0,0.8c0,1.1-0.8,1.7-1.9,1.8
			C45.5,51.1,44.6,50.5,44.6,49.3z"/>
		<path class="st1" d="M50.5,43.5c0.8,0,1.2,0,2.1,0c1.1,0,2,0.6,2,1.7c0,1.6,0,2.4-0.1,3.9c0,1.2-0.9,1.8-2,1.7c-0.8,0-1.2,0-2,0
			C50.5,47.9,50.5,46.5,50.5,43.5z M52.4,49.9c0.6,0,0.8-0.4,0.8-0.8c0-1.5,0-2.3,0-3.8c0-0.4-0.3-0.8-0.9-0.8c-0.3,0-0.4,0-0.7,0
			c0,2.2,0,3.2,0,5.4C52,49.9,52.1,49.9,52.4,49.9z"/>
		<path class="st1" d="M55.3,43.6c1.4,0,2.1,0.1,3.5,0.1c0,0.4,0,0.6,0,1c-0.9,0-1.3-0.1-2.2-0.1c0,0.8,0,1.3-0.1,2.1
			c0.7,0,1.1,0,1.8,0.1c0,0.4,0,0.6,0,1c-0.7,0-1,0-1.7-0.1c0,0.9,0,1.4-0.1,2.3c0.9,0,1.3,0,2.2,0.1c0,0.4,0,0.6,0,1
			c-1.3-0.1-2-0.1-3.3-0.1C55.2,48,55.2,46.5,55.3,43.6z"/>
		<path class="st1" d="M58.9,49.2c0.4,0,0.7,0,1.1,0c0,0.6,0.2,1.1,0.8,1.1c0.5,0,0.7-0.4,0.7-0.8c0-0.4-0.2-0.8-0.6-1.3
			c-0.3-0.4-0.5-0.5-0.8-0.9c-0.6-0.6-1-1.2-0.9-2c0-1,0.7-1.8,2-1.7c0.9,0,1.7,0.6,1.7,2c-0.4,0-0.7,0-1.1,0c0-0.6-0.2-1-0.7-1.1
			c-0.5,0-0.7,0.3-0.7,0.7c0,0.4,0.4,0.8,0.7,1.2c0.3,0.3,0.4,0.5,0.7,0.8c0.7,0.7,1,1.4,0.9,2.1c-0.1,1.1-0.8,1.8-2,1.8
			C59.5,51.2,58.9,50.4,58.9,49.2z"/>
		<path class="st1" d="M63.6,43.9c0.5,0,0.7,0,1.2,0.1c-0.2,2.9-0.3,4.4-0.5,7.4c-0.5,0-0.7,0-1.2-0.1
			C63.3,48.3,63.4,46.9,63.6,43.9z"/>
		<path class="st1" d="M65.2,49.7c0.1-1.6,0.2-2.4,0.3-4c0.1-1.1,1-1.7,2.2-1.6c1.1,0.1,1.9,0.8,1.9,1.8c0,0.3,0,0.5-0.1,0.8
			c-0.4,0-0.7-0.1-1.1-0.1c0-0.3,0-0.4,0.1-0.7c0-0.5-0.3-0.8-0.8-0.8c-0.6,0-0.9,0.3-0.9,0.8c-0.1,1.6-0.2,2.3-0.3,3.9
			c0,0.5,0.2,0.9,0.8,0.9c0.6,0,0.8-0.3,0.9-0.7c0-0.5,0.1-0.8,0.1-1.3c-0.4,0-0.5,0-0.9-0.1c0-0.4,0-0.5,0.1-0.9
			c0.8,0.1,1.2,0.1,2.1,0.2c-0.1,0.9-0.1,1.4-0.2,2.3c-0.1,1-0.9,1.6-2.1,1.5C65.9,51.6,65.1,50.9,65.2,49.7z"/>
		<path class="st1" d="M70.4,44.5c0.5,0,0.8,0.1,1.3,0.1c0.6,1.9,0.8,2.8,1.3,4.7c0,0,0,0,0,0c0.2-1.8,0.3-2.7,0.5-4.6
			c0.4,0,0.7,0.1,1.1,0.1c-0.3,2.9-0.5,4.4-0.9,7.3c-0.4-0.1-0.6-0.1-1.1-0.1c-0.5-2.1-0.8-3.1-1.4-5.2c0,0,0,0,0,0
			c-0.2,2-0.3,3-0.5,5c-0.4,0-0.6-0.1-1.1-0.1C70,48.9,70.2,47.4,70.4,44.5z"/>
		<path class="st1" d="M75.5,45c1.4,0.2,2.1,0.3,3.4,0.4c-0.1,0.4-0.1,0.6-0.1,1c-0.9-0.1-1.3-0.2-2.2-0.3c-0.1,0.8-0.2,1.2-0.3,2.1
			c0.7,0.1,1,0.1,1.7,0.2c-0.1,0.4-0.1,0.6-0.1,1c-0.7-0.1-1-0.1-1.7-0.2c-0.1,0.9-0.2,1.4-0.3,2.3c0.9,0.1,1.3,0.2,2.2,0.3
			c-0.1,0.4-0.1,0.6-0.1,1c-1.3-0.2-2-0.3-3.3-0.4C75,49.4,75.2,47.9,75.5,45z"/>
		<path class="st1" d="M79.6,45.5c0.8,0.1,1.2,0.2,2,0.3c1.3,0.2,1.9,1,1.7,2.4c-0.2,1-0.6,1.6-1.3,1.8c0.2,1.4,0.3,2.1,0.5,3.5
			c-0.5-0.1-0.7-0.1-1.2-0.2c-0.2-1.3-0.2-1.9-0.4-3.2c-0.3,0-0.4-0.1-0.6-0.1c-0.2,1.2-0.3,1.8-0.4,3c-0.5-0.1-0.7-0.1-1.2-0.2
			C79,49.9,79.2,48.5,79.6,45.5z M81,49.2c0.5,0.1,0.9-0.3,1-1.1c0.1-0.7,0-1.3-0.7-1.3c-0.3,0-0.4-0.1-0.7-0.1
			c-0.1,1-0.2,1.5-0.4,2.4C80.6,49.2,80.8,49.2,81,49.2z"/>
	</g>
	<g>
		<path class="st2" d="M40.9,55.1h2.3v0.6h-1.6v1.9h1.3v0.6h-1.3v2.1h1.6v0.6h-2.3V55.1z"/>
		<path class="st2" d="M43.5,59.5l0.6,0c0,0.5,0.2,0.9,0.7,0.9c0.5,0,0.6-0.4,0.6-0.8c0-0.4-0.2-0.7-0.5-1.1l-0.7-0.8
			c-0.4-0.4-0.7-0.9-0.7-1.4c0-0.7,0.4-1.3,1.3-1.3c0.6,0,1.1,0.3,1.2,1.3l-0.6,0c-0.1-0.6-0.3-0.8-0.6-0.8c-0.4,0-0.6,0.2-0.6,0.7
			c0,0.4,0.3,0.7,0.6,1l0.6,0.7c0.5,0.5,0.7,1,0.7,1.6c0,0.8-0.5,1.4-1.3,1.4C44,60.9,43.5,60.4,43.5,59.5z"/>
		<path class="st2" d="M47.3,55.6h-1.1v-0.6h2.9v0.6H48v5.2h-0.7V55.6z"/>
		<path class="st2" d="M49,59.9h0.6v1H49V59.9z"/>
		<path class="st2" d="M51.6,55.7l-0.5,0.1L51,55.4l0.8-0.3h0.4v5.8h-0.6V55.7z"/>
		<path class="st2" d="M53,59.8v-0.5h0.6v0.4c0,0.3,0.2,0.6,0.5,0.6c0.4,0,0.6-0.3,0.6-0.6v-1.5c-0.2,0.3-0.5,0.4-0.8,0.4
			c-0.6,0-0.9-0.3-0.9-0.9v-1.5c0-0.7,0.5-1.2,1.2-1.2c0.7,0,1.2,0.5,1.2,1.2v3.4c0,0.8-0.5,1.3-1.2,1.3C53.5,60.9,53,60.5,53,59.8z
			 M54.7,57.5v-1.4c0-0.3-0.2-0.6-0.6-0.6c-0.4,0-0.6,0.3-0.6,0.6v1.4c0,0.3,0.2,0.5,0.5,0.5C54.4,58.1,54.7,57.8,54.7,57.5z"/>
		<path class="st2" d="M57.5,55.6h-1.6v-0.6h2.3v0.5C57.3,57,57,59,57,60.8h-0.6C56.3,58.7,56.9,56.7,57.5,55.6z"/>
		<path class="st2" d="M58.5,59.8v-1c0-0.4,0.2-0.7,0.5-0.9c-0.3-0.1-0.5-0.5-0.5-0.8v-0.9c0-0.7,0.5-1.1,1.2-1.1
			c0.6,0,1.2,0.3,1.2,1.1v1c0,0.4-0.2,0.7-0.5,0.9c0.3,0.1,0.5,0.4,0.5,0.8v1.1c0,0.7-0.5,1.1-1.2,1.1C59,60.9,58.5,60.5,58.5,59.8z
			 M60.3,59.8v-1.1c0-0.3-0.3-0.6-0.6-0.6c-0.3,0-0.6,0.2-0.6,0.6v1.1c0,0.3,0.2,0.6,0.6,0.6C60.1,60.4,60.3,60.1,60.3,59.8z
			 M60.3,57v-1c0-0.3-0.3-0.5-0.6-0.5c-0.3,0-0.5,0.2-0.5,0.5v1c0,0.3,0.2,0.6,0.6,0.6C60.1,57.6,60.3,57.3,60.3,57z"/>
	</g>
	<g>
		<path class="st2" d="M37.2,0h2.5c1.5,0,2.1,0.7,2.1,1.8c0,0.9-0.5,1.6-1.4,1.7v0C41.5,3.8,42,4.5,42,5.4c0,1.5-0.9,2.1-2.2,2.1
			h-2.6V0z M39.4,3.3c0.8,0,1.3-0.4,1.3-1.3c0-0.9-0.5-1.2-1.2-1.2h-1.1v2.6H39.4z M39.6,6.7c0.8,0,1.2-0.5,1.2-1.4
			c0-0.9-0.6-1.3-1.4-1.3h-1v2.7H39.6z"/>
		<path class="st2" d="M43.1,0h2.3c1.7,0,2.5,0.7,2.5,2.1c0,1-0.5,1.7-1.4,1.9L48,7.4h-1.2l-1.4-3.2h-1v3.2h-1.2V0z M45.4,3.5
			c0.9,0,1.3-0.5,1.3-1.4c0-0.7-0.3-1.4-1.3-1.4h-1v2.8H45.4z"/>
		<path class="st2" d="M49,0h1.2v7.4H49V0z"/>
		<path class="st2" d="M53.3,0h1.6L57,7.4h-1.2l-0.6-2.2h-2.3l-0.6,2.2h-1.1L53.3,0z M55,4.5L54.1,1h0l-0.9,3.5H55z"/>
		<path class="st2" d="M57.9,0h1.3l2.7,5.2h0V0H63v7.4h-1.1L59,1.7h0v5.7h-1.1V0z"/>
	</g>
	<g>
		<polygon class="st1" points="32.1,1.4 32.8,3 34.5,3.2 33.2,4.3 33.6,6 32.1,5.1 30.6,6 31,4.3 29.7,3.2 31.4,3 		"/>
		<polygon class="st1" points="25.5,1.4 26.2,3 27.9,3.2 26.6,4.3 27,6 25.5,5.1 24,6 24.4,4.3 23.1,3.2 24.8,3 		"/>
		<polygon class="st1" points="18.9,1.4 19.5,3 21.3,3.2 20,4.3 20.4,6 18.9,5.1 17.4,6 17.8,4.3 16.5,3.2 18.2,3 		"/>
	</g>
	<g>
		<polygon class="st1" points="81.3,1.4 81.9,3 83.7,3.2 82.3,4.3 82.8,6 81.3,5.1 79.8,6 80.2,4.3 78.9,3.2 80.6,3 		"/>
		<polygon class="st1" points="74.7,1.4 75.3,3 77.1,3.2 75.7,4.3 76.1,6 74.7,5.1 73.2,6 73.6,4.3 72.3,3.2 74,3 		"/>
		<polygon class="st1" points="68.1,1.4 68.7,3 70.5,3.2 69.1,4.3 69.5,6 68.1,5.1 66.6,6 67,4.3 65.7,3.2 67.4,3 		"/>
	</g>
	<g>
		<g>
			<path class="st1" d="M0,36.4c2-0.4,3-0.6,5-0.9c0.2,2.5,1,4.7,3.6,4.3c2.4-0.4,3.1-2.4,3.1-4.3c0-1.9-1.1-3.5-3.1-5.2
				c-1.4-1.3-2.2-2-3.6-3.4c-2.8-2.4-4.5-5.1-4.5-8.6c0-4.5,2.8-8.3,8.3-8.3c4.1,0,7.6,2,7.9,8.2c-1.9,0.1-2.9,0.2-4.8,0.3
				c-0.3-2.7-1.2-4.4-3.4-4.4c-2,0.1-3,1.4-3.1,3.6c0,1.9,1.8,3.6,3.5,5.2c1.3,1.2,2,1.8,3.3,3c3,2.6,4.7,5.2,4.7,8.6
				c0,4.6-3.1,8.4-8.4,9.4C3.4,44.9,0.3,42.2,0,36.4z"/>
			<path class="st1" d="M19.3,34.3c0-6.5,0-9.7,0.1-16.2c0-5.2,4-8,9.3-8c5.1,0,9.2,2.3,9.2,7.3c0,6.2,0,9.3,0,15.5
				c0,5.2-4.1,7.9-9.3,8.4C23,41.7,19.3,39.7,19.3,34.3z M32.3,33.3c0-6.4,0-9.6,0-16c0-2-1.4-3.2-3.8-3.2c-2.5,0-3.7,1.5-3.7,3.5
				c0,6.5,0,9.7-0.1,16.2c0,1.9,1.2,3.4,3.7,3.1C31.1,36.8,32.3,35.2,32.3,33.3z"/>
			<path class="st1" d="M41.1,10.5c2.2,0,3.2,0,5.4,0c0,8.5,0,16.9,0,25.4c3.9-0.1,5.9,0,9.8,0c0,1.6,0,2.4,0,4
				c-6.1-0.2-9.1-0.1-15.2,0.1C41.1,30.1,41.1,20.3,41.1,10.5z"/>
			<path class="st1" d="M58.7,10.5c6,0,9.1,0,15.1,0c0,1.6,0,2.4,0,4c-3.9-0.1-5.8-0.1-9.7-0.1c0,3.4,0,5.1,0,8.4
				c3.1,0.1,4.7,0.1,7.8,0.3c0,1.6,0,2.4,0,4c-3.1-0.2-4.7-0.2-7.8-0.3c0,3.8,0,5.7,0,9.4c3.9,0.2,5.9,0.3,9.8,0.7
				c0,1.6,0,2.5,0,4.1c-6.1-0.6-9.1-0.8-15.2-1.1C58.7,30.1,58.7,20.3,58.7,10.5z"/>
			<path class="st1" d="M76.7,10.6c2.7,0,4,0,6.7,0c1.8,5.3,2.7,7.9,4.5,13.4c0.1,0,0.1,0,0.1,0c1.8-5.2,2.7-7.9,4.6-13.4
				c2.6,0,3.9,0,6.4,0.1c0,11.4,0,22.9,0,34.3c-1.9-0.4-2.8-0.6-4.7-1c0-8.3,0-16.6,0-25c0,0-0.1,0-0.1,0c-1.8,5.5-2.6,8.2-4.4,13.4
				c-1.5-0.2-2.2-0.3-3.7-0.4c-1.8-5.6-2.7-8.3-4.5-13.6c0,0-0.1,0-0.1,0c0,7.8,0.1,15.6,0.1,23.4c-1.9-0.3-2.9-0.4-4.8-0.6
				C76.8,31.1,76.8,20.8,76.7,10.6z"/>
		</g>
		<g>
			<path class="st3" d="M0.8,35.5c2-0.4,3-0.6,5-0.9c0.2,2.5,1.1,4.7,3.7,4.3c2.4-0.4,3.1-2.4,3.1-4.2c0-1.9-1.1-3.5-3.1-5.1
				c-1.4-1.3-2.2-2-3.6-3.4c-2.8-2.4-4.5-5.1-4.5-8.5c0-4.5,2.8-8.3,8.3-8.3c4.1,0,7.6,2,7.9,8.2c-1.9,0.1-2.9,0.2-4.8,0.3
				c-0.3-2.7-1.2-4.4-3.4-4.4c-2,0-3,1.4-3.1,3.5c0,1.9,1.8,3.6,3.5,5.2c1.3,1.2,2,1.8,3.3,3c3,2.7,4.7,5.2,4.7,8.6
				c0,4.5-3.1,8.3-8.4,9.3C4.2,43.9,1.2,41.2,0.8,35.5z"/>
			<path class="st3" d="M20.1,33.5c0-6.5,0-9.7,0.1-16.2c0-5.2,4-8,9.3-8c5.1,0,9.2,2.3,9.2,7.3c0,6.2,0,9.3,0,15.5
				c0,5.1-4.1,7.9-9.3,8.3C23.8,40.9,20.1,38.8,20.1,33.5z M33.1,32.6c0-6.4,0-9.6,0-15.9c0-2-1.4-3.2-3.8-3.2
				c-2.5,0-3.7,1.5-3.7,3.4c0,6.5,0,9.7-0.1,16.2c0,1.9,1.2,3.4,3.7,3.2C31.9,36,33.1,34.4,33.1,32.6z"/>
			<path class="st3" d="M41.9,9.8c2.1,0,3.2,0,5.4,0c0,8.5,0,16.9,0,25.4c3.9,0,5.9,0,9.8,0.1c0,1.6,0,2.4,0,4
				C51,39,48,39,41.9,39.2C41.9,29.4,41.9,19.6,41.9,9.8z"/>
			<path class="st3" d="M59.5,9.8c6,0,9.1,0,15.1,0c0,1.6,0,2.4,0,4c-3.9-0.1-5.8-0.1-9.7-0.1c0,3.4,0,5.1,0,8.4
				c3.1,0.1,4.7,0.1,7.8,0.3c0,1.6,0,2.4,0,4c-3.1-0.2-4.7-0.2-7.8-0.3c0,3.8,0,5.7,0,9.4c3.9,0.2,5.9,0.4,9.8,0.7
				c0,1.6,0,2.5,0,4.1c-6.1-0.6-9.1-0.9-15.2-1.1C59.6,29.4,59.5,19.6,59.5,9.8z"/>
			<path class="st3" d="M77.6,9.8c2.7,0,4,0,6.7,0c1.8,5.3,2.7,8,4.5,13.5c0.1,0,0.1,0,0.1,0c1.8-5.3,2.7-7.9,4.6-13.5
				c2.6,0,3.9,0,6.4,0c0,11.5,0,23,0,34.5c-1.9-0.4-2.8-0.6-4.7-1c0-8.4,0-16.7,0-25.1c0,0-0.1,0-0.1,0c-1.8,5.5-2.6,8.2-4.4,13.5
				c-1.5-0.2-2.2-0.3-3.7-0.4c-1.8-5.6-2.7-8.3-4.5-13.7c0,0-0.1,0-0.1,0c0,7.8,0.1,15.7,0.1,23.5c-1.9-0.3-2.9-0.4-4.8-0.6
				C77.7,30.4,77.6,20.1,77.6,9.8z"/>
		</g>
	</g>
</g>
</svg>
