<?xml version="1.0" encoding="utf-8"?>
<!-- Generator: Adobe Illustrator 21.1.0, SVG Export Plug-In . SVG Version: 6.00 Build 0)  -->
<svg version="1.1" id="Layer_1" xmlns="http://www.w3.org/2000/svg" xmlns:xlink="http://www.w3.org/1999/xlink" x="0px" y="0px"
	 viewBox="0 0 161.4 99.3" style="enable-background:new 0 0 161.4 99.3;" xml:space="preserve">
<style type="text/css">
	.st0{fill:#65C9D7;stroke:#61636A;stroke-width:0.5;stroke-linecap:round;stroke-linejoin:round;stroke-miterlimit:10;}
	.st1{fill:#FFFFFF;}
	.st2{fill:#61636A;}
	.st3{fill:#65C9D7;}
	.st4{fill:#61636A;stroke:#FFFFFF;stroke-width:0.5;}
</style>
<g>
	<path class="st0" d="M124.8,86.2c9.9,1.5,14.9,2.5,24.7,4.8c-2.6-3.7-4-5.6-6.8-9.2c4.1-2.4,6.2-3.5,10.4-5.7
		c-10.3-2.5-15.5-3.5-26-5.1C126.1,77.1,125.7,80.1,124.8,86.2z"/>
	<path class="st0" d="M137.7,84.2c-5.2,0.7-7.8,1.1-12.9,2"/>
</g>
<g>
	<path class="st0" d="M36.8,86.2c-9.9,1.5-14.9,2.5-24.7,4.8c2.6-3.7,4-5.6,6.8-9.2c-4.1-2.4-6.2-3.5-10.4-5.7
		c10.3-2.5,15.5-3.5,26-5.1C35.4,77.1,35.9,80.1,36.8,86.2z"/>
	<path class="st0" d="M23.9,84.2c5.2,0.7,7.8,1.1,12.9,2"/>
</g>
<path class="st0" d="M137.7,84.3c-38.4-6.6-75.4-6.6-113.8,0c-1.2-6-1.8-9-2.9-15.1c40.3-7,79.4-7,119.6,0
	C139.4,75.3,138.8,78.3,137.7,84.3z"/>
<g>
	<path class="st1" d="M32.8,78c-0.4-2.4-0.6-3.6-1-6c-0.3-1.7,0.9-2.9,2.7-3.2c1.7-0.3,3.1,0.5,3.4,2c0.1,0.5,0.1,0.7,0.2,1.2
		c-0.7,0.1-1,0.1-1.7,0.2c-0.1-0.4-0.1-0.6-0.1-1c-0.1-0.7-0.7-1.1-1.5-0.9c-0.9,0.1-1.2,0.8-1.1,1.5c0.4,2.3,0.5,3.5,0.9,5.8
		c0.1,0.8,0.6,1.2,1.5,1.1c0.9-0.1,1.1-0.7,1-1.3c-0.1-0.8-0.2-1.2-0.3-2c-0.5,0.1-0.8,0.1-1.4,0.2c-0.1-0.5-0.1-0.8-0.2-1.3
		c1.3-0.2,1.9-0.3,3.1-0.5c0.2,1.4,0.3,2.1,0.5,3.4c0.2,1.6-0.8,2.7-2.6,3C34.5,80.5,33.1,79.8,32.8,78z"/>
	<path class="st1" d="M38.8,68.4c1.2-0.2,1.8-0.2,3-0.4c1.9-0.2,3.1,0.7,3.4,2.8c0.2,1.6-0.3,2.6-1.1,3.1c0.9,1.9,1.3,2.9,2.2,4.8
		c-0.7,0.1-1.1,0.1-1.9,0.2c-0.8-1.8-1.1-2.7-1.9-4.5c-0.4,0-0.6,0.1-1,0.1c0.2,1.8,0.4,2.8,0.6,4.6c-0.7,0.1-1.1,0.1-1.8,0.2
		C39.7,75.1,39.4,72.9,38.8,68.4z M42.3,73.2c0.8-0.1,1.2-0.7,1-2c-0.1-1.1-0.6-1.8-1.5-1.7c-0.4,0.1-0.6,0.1-1,0.1
		c0.2,1.5,0.3,2.2,0.5,3.7C41.7,73.3,41.9,73.3,42.3,73.2z"/>
	<path class="st1" d="M47.9,67.3c1-0.1,1.5-0.2,2.5-0.3c1.4,4.4,2,6.6,3.3,10.9c-0.7,0.1-1.1,0.1-1.8,0.2c-0.3-1.1-0.5-1.7-0.9-2.8
		c-1,0.1-1.5,0.1-2.5,0.3c-0.1,1.2-0.1,1.8-0.2,3c-0.7,0.1-1,0.1-1.7,0.2C47.2,74.1,47.4,71.9,47.9,67.3z M50.7,73.9
		c-0.6-1.9-0.8-2.9-1.4-4.8c0,0,0,0,0,0c-0.2,2-0.3,3-0.4,4.9C49.6,74,49.9,74,50.7,73.9z"/>
	<path class="st1" d="M53.6,66.8c1.3-0.1,1.9-0.2,3.1-0.3c2-0.2,2.9,1,3.1,3.1c0.1,2.2-0.6,3.6-2.6,3.8c-0.5,0-0.7,0.1-1.1,0.1
		c0.1,1.7,0.2,2.6,0.3,4.3c-0.7,0.1-1.1,0.1-1.8,0.2C54.2,73.5,54,71.2,53.6,66.8z M56.8,72c0.9-0.1,1.3-0.8,1.2-2.2
		c-0.1-1.2-0.5-1.9-1.4-1.8c-0.4,0-0.6,0-1,0.1c0.1,1.6,0.2,2.4,0.3,4C56.3,72,56.5,72,56.8,72z"/>
	<path class="st1" d="M60.6,66.3c0.8,0,1.1-0.1,1.9-0.1c0.1,1.9,0.2,2.8,0.3,4.7c1-0.1,1.5-0.1,2.5-0.1c-0.1-1.9-0.1-2.8-0.2-4.7
		c0.7,0,1.1-0.1,1.9-0.1c0.2,4.5,0.3,6.7,0.5,11.2c-0.7,0-1.1,0-1.8,0.1c-0.1-2-0.1-2.9-0.2-4.9c-1,0-1.5,0.1-2.5,0.1
		c0.1,2,0.2,2.9,0.3,4.9c-0.7,0-1.1,0.1-1.8,0.1C61.1,72.9,60.9,70.7,60.6,66.3z"/>
	<path class="st1" d="M68.2,65.9c0.8,0,1.1,0,1.9-0.1c0.2,4.5,0.2,6.7,0.4,11.2c-0.7,0-1.1,0-1.8,0.1C68.4,72.6,68.4,70.3,68.2,65.9
		z"/>
	<path class="st1" d="M71.4,74.4c-0.1-2.4-0.1-3.7-0.2-6.1c-0.1-1.7,1.3-2.8,3.1-2.8c1.7,0,3,0.9,3,2.4c0,0.5,0,0.7,0,1.2
		c-0.7,0-1,0-1.7,0c0-0.4,0-0.6,0-1.1c0-0.7-0.5-1.2-1.3-1.2c-0.9,0-1.3,0.6-1.3,1.3c0.1,2.4,0.1,3.5,0.1,5.9c0,0.8,0.5,1.3,1.3,1.3
		c0.8,0,1.2-0.5,1.2-1.2c0-0.4,0-0.6,0-1.1c0.7,0,1,0,1.7,0c0,0.5,0,0.7,0,1.1c0,1.6-1.2,2.6-2.8,2.6C72.8,77,71.5,76.2,71.4,74.4z"
		/>
	<path class="st1" d="M80.4,65.6c1.3,0,1.9,0,3.1,0c1.7,0,3,0.9,3,2.6c0,2.4-0.1,3.6-0.1,6c0,1.8-1.3,2.7-3,2.6c-1.2,0-1.8,0-3,0
		C80.4,72.3,80.4,70.1,80.4,65.6z M83.3,75.3c0.9,0,1.3-0.6,1.3-1.2c0-2.3,0-3.4,0.1-5.7c0-0.7-0.4-1.2-1.3-1.2c-0.4,0-0.7,0-1.1,0
		c0,3.3,0,4.9,0,8.2C82.6,75.3,82.8,75.3,83.3,75.3z"/>
	<path class="st1" d="M87.7,65.7c2.1,0,3.1,0.1,5.2,0.2c0,0.6,0,0.9-0.1,1.5c-1.3-0.1-2-0.1-3.4-0.1c0,1.3-0.1,1.9-0.1,3.2
		c1.1,0,1.6,0,2.7,0.1c0,0.6,0,0.9-0.1,1.5c-1.1,0-1.6-0.1-2.6-0.1c0,1.4-0.1,2.1-0.1,3.5c1.3,0,2,0.1,3.3,0.1c0,0.6,0,0.9-0.1,1.5
		c-2-0.1-3-0.1-5.1-0.2C87.5,72.4,87.6,70.1,87.7,65.7z"/>
	<path class="st1" d="M93.1,74.2c0.7,0,1,0,1.7,0c0,0.8,0.3,1.6,1.2,1.7c0.8,0,1.1-0.6,1.1-1.2c0-0.7-0.3-1.3-1-2
		c-0.5-0.5-0.7-0.8-1.2-1.3c-0.9-0.9-1.5-1.9-1.4-3c0.1-1.5,1.1-2.7,3-2.6c1.4,0.1,2.6,0.8,2.6,3c-0.7,0-1,0-1.6,0
		c-0.1-0.9-0.3-1.6-1.1-1.6c-0.7,0-1.1,0.4-1.1,1.1c0,0.6,0.6,1.3,1.1,1.9c0.4,0.5,0.7,0.7,1.1,1.2c1,1.1,1.5,2,1.4,3.3
		c-0.1,1.6-1.2,2.8-3,2.7C94.1,77.2,93.1,76.1,93.1,74.2z"/>
	<path class="st1" d="M100.3,66.2c0.8,0,1.1,0.1,1.9,0.1c-0.3,4.5-0.5,6.7-0.8,11.2c-0.7,0-1.1-0.1-1.8-0.1
		C99.8,72.9,100,70.7,100.3,66.2z"/>
	<path class="st1" d="M102.6,75c0.2-2.4,0.3-3.6,0.4-6c0.1-1.7,1.5-2.6,3.4-2.5c1.7,0.1,2.9,1.2,2.8,2.7c0,0.5-0.1,0.7-0.1,1.2
		c-0.7-0.1-1-0.1-1.7-0.2c0-0.4,0.1-0.6,0.1-1c0.1-0.7-0.4-1.2-1.2-1.3c-0.9-0.1-1.3,0.5-1.4,1.2c-0.2,2.4-0.3,3.5-0.5,5.9
		c-0.1,0.8,0.4,1.3,1.2,1.4c0.9,0.1,1.2-0.4,1.3-1.1c0.1-0.8,0.1-1.2,0.2-2c-0.6,0-0.8-0.1-1.4-0.1c0-0.5,0.1-0.8,0.1-1.3
		c1.3,0.1,1.9,0.2,3.1,0.3c-0.1,1.4-0.2,2.1-0.3,3.5c-0.1,1.6-1.4,2.5-3.2,2.3C103.7,77.8,102.5,76.8,102.6,75z"/>
	<path class="st1" d="M110.6,67c0.8,0.1,1.2,0.1,1.9,0.2c0.8,2.9,1.2,4.3,2,7.2c0,0,0,0,0,0c0.3-2.8,0.5-4.1,0.8-6.9
		c0.7,0.1,1,0.1,1.7,0.2c-0.5,4.4-0.8,6.7-1.3,11.1c-0.7-0.1-1-0.1-1.6-0.2c-0.8-3.2-1.3-4.7-2.1-7.9c0,0,0,0,0,0
		c-0.3,3-0.5,4.6-0.8,7.6c-0.6-0.1-1-0.1-1.6-0.2C110,73.7,110.2,71.5,110.6,67z"/>
	<path class="st1" d="M118.3,67.9c2.1,0.3,3.1,0.4,5.2,0.7c-0.1,0.6-0.1,0.9-0.2,1.5c-1.3-0.2-2-0.3-3.3-0.4
		c-0.2,1.3-0.2,1.9-0.4,3.1c1.1,0.1,1.6,0.2,2.6,0.3c-0.1,0.6-0.1,0.9-0.2,1.5c-1.1-0.1-1.6-0.2-2.6-0.3c-0.2,1.4-0.3,2.1-0.4,3.5
		c1.3,0.2,2,0.3,3.3,0.4c-0.1,0.6-0.1,0.9-0.2,1.5c-2-0.3-3-0.4-5-0.7C117.5,74.5,117.8,72.3,118.3,67.9z"/>
	<path class="st1" d="M124.5,68.7c1.2,0.2,1.8,0.3,3,0.4c1.9,0.3,2.8,1.5,2.5,3.6c-0.3,1.6-1,2.4-1.9,2.7c0.3,2.1,0.5,3.1,0.8,5.2
		c-0.7-0.1-1.1-0.2-1.9-0.3c-0.2-1.9-0.4-2.9-0.6-4.8c-0.4-0.1-0.6-0.1-1-0.1c-0.3,1.8-0.4,2.8-0.7,4.6c-0.7-0.1-1.1-0.2-1.8-0.3
		C123.6,75.3,123.9,73.1,124.5,68.7z M126.6,74.2c0.8,0.1,1.3-0.4,1.5-1.7c0.2-1.1-0.1-1.9-1-2c-0.4-0.1-0.6-0.1-1-0.1
		c-0.2,1.5-0.3,2.2-0.5,3.7C126,74.2,126.2,74.2,126.6,74.2z"/>
</g>
<g>
	<path class="st2" d="M65.9,83.1h3.5v0.9h-2.5v2.9h2v0.9h-2v3.2h2.5v0.9h-3.5V83.1z"/>
	<path class="st2" d="M69.8,89.8l1,0c0.1,0.8,0.4,1.4,1.1,1.4c0.7,0,1-0.6,1-1.2c0-0.6-0.3-1.1-0.8-1.7l-1-1.2c-0.6-0.7-1-1.4-1-2.2
		c0-1.1,0.6-2,1.9-2c1,0,1.7,0.5,1.8,2l-0.9,0c-0.1-0.8-0.4-1.2-1-1.2c-0.6,0-0.9,0.4-0.9,1.1c0,0.6,0.4,1.1,0.9,1.6l0.9,1
		c0.7,0.8,1.1,1.5,1.1,2.4c0,1.2-0.7,2.1-1.9,2.1C70.6,91.9,69.9,91.2,69.8,89.8z"/>
	<path class="st2" d="M75.6,83.9h-1.7v-0.9h4.3v0.9h-1.7v7.9h-1V83.9z"/>
	<path class="st2" d="M78.2,90.4h0.9v1.4h-0.9V90.4z"/>
	<path class="st2" d="M82,84.1l-0.7,0.2l-0.1-0.7l1.2-0.5H83v8.7h-1V84.1z"/>
	<path class="st2" d="M84.3,90.3v-0.7h0.9v0.6c0,0.5,0.3,0.9,0.8,0.9c0.6,0,0.9-0.4,0.9-1v-2.3c-0.3,0.4-0.8,0.6-1.2,0.6
		c-0.9,0-1.4-0.5-1.4-1.4v-2.3c0-1.1,0.7-1.8,1.8-1.8c1.1,0,1.8,0.7,1.8,1.8V90c0,1.2-0.8,2-1.8,2C84.9,91.9,84.3,91.3,84.3,90.3z
		 M86.8,86.7v-2.1c0-0.4-0.3-0.9-0.9-0.9c-0.6,0-0.8,0.5-0.8,0.9v2.2c0,0.5,0.3,0.8,0.8,0.8C86.4,87.7,86.8,87.2,86.8,86.7z"/>
	<path class="st2" d="M91,84h-2.5v-0.9H92v0.7c-1.2,2.1-1.8,5.2-1.8,8h-1C89.3,88.5,90.1,85.6,91,84z"/>
	<path class="st2" d="M92.5,90.2v-1.6c0-0.6,0.3-1.1,0.8-1.3c-0.5-0.2-0.7-0.7-0.7-1.3v-1.4c0-1.1,0.8-1.7,1.8-1.7
		c1,0,1.8,0.5,1.8,1.6V86c0,0.6-0.3,1.1-0.7,1.3c0.5,0.2,0.8,0.6,0.8,1.3v1.6c0,1.1-0.8,1.7-1.9,1.7C93.3,91.9,92.5,91.3,92.5,90.2z
		 M95.2,90.2v-1.7c0-0.5-0.4-0.9-0.9-0.9c-0.5,0-0.9,0.4-0.9,0.8v1.7c0,0.5,0.3,0.9,0.9,0.9C94.9,91.1,95.2,90.7,95.2,90.2z
		 M95.2,86.1v-1.5c0-0.5-0.4-0.8-0.9-0.8c-0.5,0-0.8,0.3-0.8,0.8v1.5c0,0.5,0.4,0.9,0.8,0.9C94.9,86.9,95.2,86.5,95.2,86.1z"/>
</g>
<g>
	<g>
		<path class="st2" d="M60.3,6.8h3.8c2.2,0,3.2,1,3.2,2.8c0,1.4-0.8,2.4-2.1,2.6v0.1c1.6,0.3,2.2,1.3,2.2,2.6c0,2.2-1.4,3.1-3.3,3.1
			h-3.9V6.8z M63.6,11.7c1.2,0,2-0.6,2-2c0-1.3-0.7-1.9-1.8-1.9h-1.7v3.9H63.6z M63.9,16.9c1.2,0,1.8-0.7,1.8-2.1c0-1.4-0.8-2-2.1-2
			h-1.4v4.1H63.9z"/>
		<path class="st2" d="M69.2,6.8h3.5c2.5,0,3.7,1.1,3.7,3.1c0,1.6-0.8,2.6-2.1,2.9l2.3,5.2h-1.9l-2.1-4.9h-1.6V18h-1.8V6.8z
			 M72.6,12.1c1.3,0,2-0.7,2-2.1c0-1.1-0.5-2.1-2-2.1h-1.5v4.2H72.6z"/>
		<path class="st2" d="M78.2,6.8h1.8V18h-1.8V6.8z"/>
		<path class="st2" d="M84.7,6.7h2.4L90.3,18h-1.8l-0.9-3.3H84L83.1,18h-1.7L84.7,6.7z M87.2,13.6l-1.4-5.3h-0.1l-1.4,5.3H87.2z"/>
		<path class="st2" d="M91.6,6.8h2l4.1,7.9h0V6.8h1.6V18h-1.7l-4.3-8.6h-0.1V18h-1.6V6.8z"/>
	</g>
	<g>
		<polygon class="st3" points="52.6,8.9 53.6,11.3 56.2,11.5 54.2,13.2 54.8,15.8 52.6,14.4 50.3,15.8 51,13.2 48.9,11.5 51.6,11.3 
					"/>
		<polygon class="st3" points="42.6,8.9 43.6,11.3 46.2,11.5 44.2,13.2 44.8,15.8 42.6,14.4 40.3,15.8 41,13.2 38.9,11.5 41.6,11.3 
					"/>
		<polygon class="st3" points="32.6,8.9 33.6,11.3 36.2,11.5 34.2,13.2 34.8,15.8 32.6,14.4 30.3,15.8 31,13.2 28.9,11.5 31.6,11.3 
					"/>
	</g>
	<g>
		<polygon class="st3" points="127,8.9 128,11.3 130.6,11.5 128.6,13.2 129.2,15.8 127,14.4 124.8,15.8 125.4,13.2 123.4,11.5 
			126,11.3 		"/>
		<polygon class="st3" points="117,8.9 118,11.3 120.6,11.5 118.6,13.2 119.2,15.8 117,14.4 114.8,15.8 115.4,13.2 113.4,11.5 
			116,11.3 		"/>
		<polygon class="st3" points="107,8.9 108,11.3 110.6,11.5 108.6,13.2 109.2,15.8 107,14.4 104.8,15.8 105.4,13.2 103.4,11.5 
			106,11.3 		"/>
	</g>
</g>
<g>
	<g>
		<g>
			<path class="st3" d="M8.7,57c2.8-0.6,4.2-0.8,7.1-1.3c0.3,3.6,1.5,6.7,5.2,6.1c3.3-0.5,4.4-3.5,4.5-6c0-2.7-1.6-4.9-4.4-7.3
				c-2-1.9-3.1-2.8-5.1-4.8c-4-3.4-6.4-7.2-6.4-12.1c0-6.4,3.9-11.8,11.7-11.8c5.8,0,10.8,2.8,11.2,11.6c-2.7,0.2-4.1,0.3-6.8,0.5
				c-0.5-3.8-1.7-6.3-4.8-6.2c-2.8,0.1-4.3,2.1-4.3,5c0,2.7,2.5,5.1,4.9,7.4c1.9,1.7,2.8,2.6,4.7,4.3c4.3,3.8,6.7,7.3,6.7,12.2
				c0,6.5-4.4,11.9-11.9,13.3C13.5,69.1,9.2,65.2,8.7,57z"/>
			<path class="st3" d="M36.1,54c0-9.2,0-13.8,0.1-23c0-7.4,5.7-11.3,13.2-11.4c7.3,0,13,3.2,13,10.3c0,8.8,0,13.2,0,22
				c0,7.3-5.8,11.2-13.2,11.9C41.3,64.5,36.1,61.6,36.1,54z M54.5,52.6c0-9.1,0-13.6,0.1-22.7c0-2.8-2-4.6-5.3-4.5
				c-3.5,0.1-5.2,2.2-5.2,4.9c0,9.2,0,13.8-0.1,23c0,2.7,1.7,4.8,5.3,4.5C52.8,57.5,54.5,55.3,54.5,52.6z"/>
			<path class="st3" d="M67,20.2c3,0,4.6,0,7.6,0c0,12,0,24,0,36c5.6-0.1,8.4-0.1,13.9,0.1c0,2.2,0,3.4,0,5.6
				c-8.6-0.2-13-0.2-21.6,0.1C67,48.1,67,34.1,67,20.2z"/>
			<path class="st3" d="M92,20.2c8.6,0,12.9,0,21.4,0.1c0,2.3,0,3.4,0,5.7c-5.5-0.1-8.3-0.1-13.8-0.2c0,4.8,0,7.2,0,11.9
				c4.4,0.1,6.6,0.2,11.1,0.4c0,2.3,0,3.4,0,5.7c-4.4-0.2-6.6-0.3-11.1-0.5c0,5.3,0,8,0,13.4c5.6,0.3,8.4,0.5,13.9,1
				c0,2.3,0,3.5,0,5.8C105,62.6,100.7,62.3,92,62C92,48.1,92,34.1,92,20.2z"/>
			<path class="st3" d="M117.6,20.3c3.8,0,5.7,0,9.5,0.1c2.6,7.5,3.9,11.3,6.4,19.1c0.1,0,0.1,0,0.2,0c2.6-7.4,3.9-11.2,6.5-19
				c3.7,0,5.5,0,9.1,0.1c0,16.2,0,32.4,0,48.7c-2.7-0.6-4-0.9-6.7-1.4c0-11.8,0-23.6-0.1-35.4c-0.1,0-0.1,0-0.1,0
				c-2.5,7.8-3.8,11.6-6.3,19.1c-2.1-0.3-3.2-0.4-5.3-0.6c-2.5-7.9-3.8-11.7-6.4-19.3c-0.1,0-0.1,0-0.1,0c0,11.1,0.1,22.2,0.1,33.3
				c-2.7-0.4-4.1-0.5-6.8-0.9C117.7,49.4,117.6,34.9,117.6,20.3z"/>
		</g>
		<g>
			<path class="st4" d="M9.9,55.6c2.8-0.5,4.3-0.8,7.1-1.3c0.3,3.5,1.5,6.6,5.2,6.1c3.3-0.5,4.5-3.4,4.5-6c0-2.7-1.6-4.9-4.4-7.3
				c-2-1.9-3.1-2.9-5.1-4.8c-4-3.4-6.4-7.2-6.4-12.1c0-6.4,3.9-11.7,11.7-11.7c5.8,0,10.8,2.8,11.2,11.6c-2.7,0.2-4.1,0.3-6.8,0.5
				c-0.5-3.8-1.7-6.2-4.8-6.2c-2.8,0.1-4.3,2-4.3,5c0,2.7,2.5,5.1,4.9,7.4c1.9,1.7,2.8,2.6,4.7,4.3c4.3,3.8,6.7,7.3,6.7,12.2
				c0,6.4-4.4,11.8-11.9,13.1C14.7,67.7,10.4,63.8,9.9,55.6z"/>
			<path class="st4" d="M37.3,52.8c0-9.2,0-13.8,0.1-22.9c0-7.4,5.7-11.3,13.2-11.3c7.3,0,13,3.2,13,10.4c0,8.8,0,13.2,0,22
				c0,7.3-5.8,11.1-13.2,11.8C42.5,63.3,37.3,60.4,37.3,52.8z M55.7,51.5c0-9,0-13.6,0.1-22.6c0-2.8-2-4.6-5.3-4.5
				c-3.5,0-5.2,2.1-5.2,4.9c0,9.2,0,13.8-0.1,23c0,2.7,1.7,4.8,5.3,4.5C54,56.4,55.7,54.2,55.7,51.5z"/>
			<path class="st4" d="M68.2,19.2c3,0,4.6,0,7.6,0c0,12,0,24,0,36c5.6-0.1,8.4,0,13.9,0.1c0,2.2,0,3.4,0,5.6
				c-8.6-0.3-13-0.2-21.6,0.1C68.2,47,68.2,33.1,68.2,19.2z"/>
			<path class="st4" d="M93.2,19.2c8.6,0,12.9,0,21.4,0c0,2.3,0,3.4,0,5.7c-5.5-0.1-8.3-0.1-13.8-0.2c0,4.8,0,7.2,0,12
				c4.4,0.1,6.6,0.2,11.1,0.4c0,2.3,0,3.4,0,5.7c-4.4-0.2-6.6-0.3-11.1-0.5c0,5.4,0,8,0,13.4c5.6,0.3,8.4,0.5,13.9,1
				c0,2.3,0,3.5,0,5.8c-8.6-0.9-12.9-1.2-21.6-1.6C93.2,47.1,93.2,33.1,93.2,19.2z"/>
			<path class="st4" d="M118.8,19.2c3.8,0,5.7,0,9.5,0c2.6,7.5,3.9,11.3,6.4,19.1c0.1,0,0.1,0,0.2,0c2.6-7.5,3.9-11.3,6.5-19.1
				c3.7,0,5.5,0,9.1,0c0,16.3,0,32.6,0,48.9c-2.7-0.6-4-0.9-6.7-1.4c0-11.9,0-23.7-0.1-35.6c-0.1,0-0.1,0-0.1,0
				c-2.5,7.8-3.8,11.7-6.3,19.2c-2.1-0.2-3.2-0.4-5.3-0.6c-2.5-7.9-3.8-11.8-6.4-19.4c-0.1,0-0.1,0-0.1,0c0,11.1,0.1,22.3,0.1,33.4
				c-2.7-0.4-4.1-0.5-6.8-0.9C118.9,48.4,118.8,33.8,118.8,19.2z"/>
		</g>
	</g>
</g>
</svg>
