<?xml version="1.0" encoding="utf-8"?>
<!-- Generator: Adobe Illustrator 21.1.0, SVG Export Plug-In . SVG Version: 6.00 Build 0)  -->
<svg version="1.1" id="Layer_2" xmlns="http://www.w3.org/2000/svg" xmlns:xlink="http://www.w3.org/1999/xlink" x="0px" y="0px"
	 viewBox="0 0 288 288" style="enable-background:new 0 0 288 288;" xml:space="preserve">
<style type="text/css">
	.st0{fill:#FFFFFF;}
	.st1{fill:#65C8D6;}
</style>
<circle class="st0" cx="144.1" cy="144.4" r="136.5"/>
<path id="XMLID_2_" class="st1" d="M113.3,211.5c62.7,0,96.9-51.9,96.9-96.9c0-1.5,0-2.9-0.1-4.4c6.7-4.8,12.4-10.8,17-17.6
	c-6.1,2.7-12.7,4.5-19.6,5.4c7-4.2,12.4-10.9,15-18.8c-6.6,3.9-13.9,6.7-21.6,8.3c-6.2-6.6-15.1-10.8-24.9-10.8
	c-18.8,0-34.1,15.3-34.1,34.1c0,2.7,0.3,5.3,0.9,7.8c-28.3-1.4-53.4-15-70.2-35.6c-2.9,5-4.6,10.9-4.6,17.1c0,11.8,6,22.3,15.2,28.4
	c-5.6-0.2-10.8-1.7-15.4-4.3c0,0.1,0,0.3,0,0.4c0,16.5,11.7,30.3,27.3,33.4c-2.9,0.8-5.9,1.2-9,1.2c-2.2,0-4.3-0.2-6.4-0.6
	c4.3,13.5,16.9,23.4,31.8,23.7c-11.7,9.1-26.3,14.6-42.3,14.6c-2.7,0-5.5-0.2-8.1-0.5C76.2,205.8,94.1,211.5,113.3,211.5"/>
</svg>
